<svg width="40" height="40" viewBox="0 0 40 40" fill="none" xmlns="http://www.w3.org/2000/svg">
    <rect width="40" height="40" rx="20" fill="#F0F1F3"/>
    <g clip-path="url(#clip0_1_1905)">
        <path d="M24.2906 13.25L23.2309 11.876C23.0198 11.6044 22.7496 11.3843 22.4409 11.2325C22.1321 11.0808 21.7929 11.0012 21.4489 11H18.5509C18.2068 11.0012 17.8676 11.0808 17.5589 11.2325C17.2501 11.3843 16.98 11.6044 16.7689 11.876L15.7091 13.25H24.2906Z" fill="#4A4C56"/>
        <path d="M20.0001 24.5C21.657 24.5 23.0001 23.1569 23.0001 21.5001C23.0001 19.8432 21.657 18.5001 20.0001 18.5001C18.3433 18.5001 17.0001 19.8432 17.0001 21.5001C17.0001 23.1569 18.3433 24.5 20.0001 24.5Z" fill="#4A4C56"/>
        <path d="M25.25 14.7499H14.75C13.7558 14.7511 12.8027 15.1466 12.0997 15.8496C11.3967 16.5526 11.0012 17.5057 11 18.4999L11 25.2499C11.0012 26.2441 11.3967 27.1973 12.0997 27.9003C12.8027 28.6033 13.7558 28.9987 14.75 28.9999H25.25C26.2442 28.9987 27.1973 28.6033 27.9003 27.9003C28.6033 27.1973 28.9988 26.2441 29 25.2499V18.4999C28.9988 17.5057 28.6033 16.5526 27.9003 15.8496C27.1973 15.1466 26.2442 14.7511 25.25 14.7499ZM20 25.9999C19.11 25.9999 18.24 25.736 17.4999 25.2415C16.7599 24.7471 16.1831 24.0443 15.8425 23.222C15.5019 22.3997 15.4128 21.4949 15.5865 20.622C15.7601 19.7491 16.1887 18.9473 16.818 18.318C17.4474 17.6886 18.2492 17.26 19.1221 17.0864C19.995 16.9128 20.8998 17.0019 21.7221 17.3425C22.5443 17.6831 23.2471 18.2598 23.7416 18.9999C24.2361 19.7399 24.5 20.6099 24.5 21.4999C24.4988 22.693 24.0243 23.8369 23.1807 24.6806C22.337 25.5242 21.1931 25.9987 20 25.9999Z" fill="#4A4C56"/>
    </g>
    <defs>
        <clipPath id="clip0_1_1905">
            <rect width="18" height="18" fill="white" transform="translate(11 11)"/>
        </clipPath>
    </defs>
</svg>