<svg width="32" height="32" viewBox="0 0 32 32" fill="none" xmlns="http://www.w3.org/2000/svg">
    <g clip-path="url(#clip0_1_1563)">
        <path d="M8.56799 26.75C8.85874 27.4185 9.33841 27.9876 9.94811 28.3873C10.5578 28.787 11.271 29 12 29C12.729 29 13.4422 28.787 14.0519 28.3873C14.6616 27.9876 15.1412 27.4185 15.432 26.75H8.56799Z" fill="#858D9D"/>
        <path d="M19.7941 20.4118L18.4921 16.1195C18.0752 14.6183 17.1686 13.2993 15.9165 12.3721C14.6644 11.4449 13.1384 10.9626 11.5808 11.0017C10.0232 11.0408 8.52334 11.5992 7.31933 12.5881C6.11531 13.577 5.27616 14.9397 4.9351 16.46L3.9241 20.6128C3.78973 21.1646 3.78244 21.7397 3.90281 22.2947C4.02317 22.8498 4.26803 23.3702 4.61892 23.8168C4.9698 24.2634 5.41754 24.6245 5.92834 24.8727C6.43914 25.121 6.99966 25.25 7.5676 25.25H16.2053C16.7909 25.25 17.3683 25.1129 17.8914 24.8497C18.4144 24.5864 18.8685 24.2044 19.2174 23.7341C19.5662 23.2638 19.8001 22.7183 19.9002 22.1414C20.0004 21.5645 19.964 20.9721 19.7941 20.4118Z" fill="#858D9D"/>
    </g>
    <rect x="13" width="19" height="18" rx="4" fill="#2BB2FE"/>
    <path d="M19.6463 13V12.0483L22.1712 9.57315C22.4126 9.32931 22.6139 9.11269 22.7749 8.9233C22.9358 8.7339 23.0566 8.55043 23.1371 8.37287C23.2176 8.19531 23.2578 8.00592 23.2578 7.80469C23.2578 7.57505 23.2057 7.37855 23.1016 7.2152C22.9974 7.04948 22.8542 6.92164 22.6719 6.83168C22.4896 6.74171 22.2824 6.69673 22.0504 6.69673C21.8113 6.69673 21.6018 6.74645 21.4219 6.84588C21.242 6.94294 21.1023 7.08144 21.0028 7.26136C20.9058 7.44129 20.8572 7.65554 20.8572 7.90412H19.6037C19.6037 7.44247 19.709 7.04119 19.9197 6.70028C20.1304 6.35937 20.4205 6.09541 20.7898 5.90838C21.1615 5.72135 21.5876 5.62784 22.0682 5.62784C22.5559 5.62784 22.9844 5.71899 23.3537 5.90128C23.723 6.08357 24.0095 6.33333 24.2131 6.65057C24.419 6.9678 24.522 7.33002 24.522 7.73722C24.522 8.00947 24.4699 8.27699 24.3658 8.53977C24.2616 8.80256 24.0781 9.09375 23.8153 9.41335C23.5549 9.73295 23.1892 10.12 22.718 10.5746L21.4645 11.8494V11.8991H24.6321V13H19.6463Z" fill="white"/>
    <defs>
    <clipPath id="clip0_1_1563">
        <rect width="18" height="18" fill="white" transform="translate(3 11)"/>
    </clipPath>
    </defs>
</svg>
