<svg width="24" height="24" viewBox="0 0 24 24" fill="none" xmlns="http://www.w3.org/2000/svg">
    <g clip-path="url(#clip0_53_371)">
        <path d="M8.56799 18.75C8.85874 19.4185 9.33841 19.9876 9.94811 20.3873C10.5578 20.787 11.271 21 12 21C12.729 21 13.4422 20.787 14.0519 20.3873C14.6616 19.9876 15.1412 19.4185 15.432 18.75H8.56799Z" fill="#858D9D"/>
        <path d="M19.7941 12.4118L18.4921 8.11951C18.0752 6.61827 17.1686 5.29934 15.9165 4.37213C14.6644 3.44493 13.1384 2.9626 11.5808 3.00172C10.0232 3.04084 8.52334 3.59917 7.31933 4.58806C6.11531 5.57696 5.27616 6.93973 4.9351 8.46001L3.9241 12.6128C3.78973 13.1646 3.78244 13.7397 3.90281 14.2947C4.02317 14.8498 4.26803 15.3702 4.61892 15.8168C4.9698 16.2634 5.41754 16.6245 5.92834 16.8727C6.43914 17.121 6.99966 17.25 7.5676 17.25H16.2053C16.7909 17.25 17.3683 17.1129 17.8914 16.8497C18.4144 16.5864 18.8685 16.2044 19.2174 15.7341C19.5662 15.2638 19.8001 14.7183 19.9002 14.1414C20.0004 13.5645 19.964 12.9721 19.7941 12.4118V12.4118Z" fill="#858D9D"/>
    </g>
    <defs>
    <clipPath id="clip0_53_371">
        <rect width="18" height="18" fill="white" transform="translate(3 3)"/>
    </clipPath>
    </defs>
</svg>
