<svg width="24" height="24" viewBox="0 0 24 24" fill="none" xmlns="http://www.w3.org/2000/svg">
    <g clip-path="url(#clip0_53_385)">
        <path d="M20.9655 7.15637L14.652 13.4699C13.948 14.1721 12.9943 14.5664 12 14.5664C11.0057 14.5664 10.052 14.1721 9.348 13.4699L3.0345 7.15637C3.024 7.27487 3 7.38212 3 7.49987V16.4999C3.00119 17.4941 3.39666 18.4472 4.09966 19.1502C4.80267 19.8532 5.7558 20.2487 6.75 20.2499H17.25C18.2442 20.2487 19.1973 19.8532 19.9003 19.1502C20.6033 18.4472 20.9988 17.4941 21 16.4999V7.49987C21 7.38212 20.976 7.27487 20.9655 7.15637Z" fill="#858D9D"/>
        <path d="M13.5915 12.4094L20.442 5.55813C20.1101 5.00787 19.6421 4.55241 19.083 4.23568C18.5239 3.91895 17.8926 3.75163 17.25 3.74988H6.74998C6.1074 3.75163 5.47611 3.91895 4.917 4.23568C4.3579 4.55241 3.88984 5.00787 3.55798 5.55813L10.4085 12.4094C10.8312 12.8304 11.4034 13.0667 12 13.0667C12.5965 13.0667 13.1688 12.8304 13.5915 12.4094V12.4094Z" fill="#858D9D"/>
    </g>
    <defs>
    <clipPath id="clip0_53_385">
        <rect width="18" height="18" fill="white" transform="translate(3 3)"/>
    </clipPath>
    </defs>
</svg>
