<svg width="20" height="20" viewBox="0 0 20 20" fill="none" xmlns="http://www.w3.org/2000/svg">
    <g clip-path="url(#clip0_1_3103)">
        <path d="M10.648 9.99998L15.3656 5.28236C15.4491 5.19592 15.4953 5.08014 15.4943 4.95997C15.4932 4.83979 15.445 4.72484 15.36 4.63986C15.275 4.55488 15.1601 4.50668 15.0399 4.50563C14.9197 4.50459 14.804 4.55079 14.7175 4.63427L9.9999 9.3519L5.28228 4.63427C5.19583 4.55079 5.08006 4.50459 4.95988 4.50563C4.83971 4.50668 4.72476 4.55488 4.63978 4.63986C4.5548 4.72484 4.5066 4.83979 4.50555 4.95997C4.50451 5.08014 4.5507 5.19592 4.63419 5.28236L9.35182 9.99998L4.63419 14.7176C4.54827 14.8036 4.5 14.9201 4.5 15.0416C4.5 15.1632 4.54827 15.2797 4.63419 15.3657V15.3657C4.72014 15.4516 4.8367 15.4999 4.95824 15.4999C5.07977 15.4999 5.19633 15.4516 5.28228 15.3657L9.9999 10.6481L14.7175 15.3657C14.8035 15.4516 14.92 15.4999 15.0416 15.4999C15.1631 15.4999 15.2797 15.4516 15.3656 15.3657C15.4515 15.2797 15.4998 15.1632 15.4998 15.0416C15.4998 14.9201 15.4515 14.8036 15.3656 14.7176L10.648 9.99998Z" fill="#858D9D"/>
    </g>
    <defs>
        <clipPath id="clip0_1_3103">
            <rect width="11" height="11" fill="white" transform="translate(4.5 4.5)"/>
        </clipPath>
    </defs>
</svg>