<svg width="16" height="16" viewBox="0 0 16 16" fill="none" xmlns="http://www.w3.org/2000/svg">
    <path d="M14 2.66666H11.9333C11.6144 1.11572 10.2501 0.002 8.66666 0H7.33332C5.74991 0.002 4.3856 1.11572 4.06666 2.66666H2.00001C1.63182 2.66666 1.33335 2.96513 1.33335 3.33331C1.33335 3.7015 1.63182 4 2.00001 4H2.66666V12.6667C2.66888 14.5067 4.15997 15.9978 6.00001 16H10C11.84 15.9978 13.3311 14.5067 13.3333 12.6667V4H14C14.3682 4 14.6667 3.70153 14.6667 3.33334C14.6667 2.96516 14.3682 2.66666 14 2.66666ZM7.33335 11.3333C7.33335 11.7015 7.03488 12 6.66669 12C6.29847 12 6.00001 11.7015 6.00001 11.3333V7.33334C6.00001 6.96516 6.29847 6.66669 6.66666 6.66669C7.03485 6.66669 7.33332 6.96516 7.33332 7.33334V11.3333H7.33335ZM10 11.3333C10 11.7015 9.70154 12 9.33335 12C8.96516 12 8.66669 11.7015 8.66669 11.3333V7.33334C8.66669 6.96516 8.96516 6.66669 9.33335 6.66669C9.70154 6.66669 10 6.96516 10 7.33334V11.3333ZM5.44735 2.66666C5.73091 1.86819 6.48604 1.33434 7.33335 1.33331H8.66669C9.51401 1.33434 10.2691 1.86819 10.5527 2.66666H5.44735Z" fill="#A3A9B6"/>
</svg>