<svg width="24" height="24" viewBox="0 0 24 24" fill="none" xmlns="http://www.w3.org/2000/svg">
    <path d="M7.81063 9.75H16.1896C16.3379 9.75003 16.4829 9.79404 16.6062 9.87645C16.7295 9.95886 16.8256 10.076 16.8824 10.213C16.9391 10.35 16.954 10.5008 16.9251 10.6463C16.8961 10.7917 16.8247 10.9254 16.7199 11.0302L12.5304 15.2197C12.3897 15.3603 12.199 15.4393 12.0001 15.4393C11.8013 15.4393 11.6105 15.3603 11.4699 15.2197L7.28038 11.0302C7.17552 10.9254 7.10412 10.7917 7.07519 10.6463C7.04627 10.5008 7.06112 10.35 7.11787 10.213C7.17463 10.076 7.27073 9.95886 7.39404 9.87645C7.51734 9.79404 7.66232 9.75003 7.81063 9.75Z" fill="#858D9D"/>
</svg>