<svg width="10" height="7" viewBox="0 0 10 7" fill="none" xmlns="http://www.w3.org/2000/svg">
    <path d="M0.810631 0.75H9.18963C9.33794 0.750032 9.48292 0.794035 9.60623 0.876448C9.72953 0.958861 9.82564 1.07598 9.88239 1.21301C9.93914 1.35003 9.95399 1.50081 9.92507 1.64627C9.89614 1.79174 9.82474 1.92536 9.71988 2.03025L5.53038 6.21974C5.38974 6.36034 5.199 6.43933 5.00013 6.43933C4.80126 6.43933 4.61053 6.36034 4.46988 6.21974L0.280381 2.03025C0.175524 1.92536 0.104119 1.79174 0.0751936 1.64627C0.0462679 1.50081 0.0611204 1.35003 0.117873 1.21301C0.174625 1.07598 0.27073 0.958861 0.394037 0.876448C0.517345 0.794035 0.662319 0.750032 0.810631 0.75Z" fill="#858D9D"/>
</svg>
