<svg width="16" height="16" viewBox="0 0 16 16" fill="none" xmlns="http://www.w3.org/2000/svg">
    <g clip-path="url(#clip0_1_3816)">
        <path d="M0.781328 12.7458C0.281196 13.2458 0.000145311 13.9239 -5.72205e-06 14.6311L-5.72205e-06 15.9998H1.36866C2.07585 15.9996 2.75401 15.7186 3.25399 15.2184L12.1493 6.32313L9.67666 3.85046L0.781328 12.7458Z" fill="#A3A9B6"/>
        <path d="M15.4299 0.570117C15.2675 0.407607 15.0748 0.278687 14.8626 0.190728C14.6504 0.102769 14.4229 0.0574951 14.1932 0.0574951C13.9635 0.0574951 13.7361 0.102769 13.5239 0.190728C13.3117 0.278687 13.1189 0.407607 12.9566 0.570117L10.6192 2.90812L13.0919 5.38078L15.4299 3.04345C15.5924 2.88111 15.7213 2.68833 15.8093 2.47614C15.8972 2.26394 15.9425 2.03649 15.9425 1.80678C15.9425 1.57708 15.8972 1.34963 15.8093 1.13743C15.7213 0.925236 15.5924 0.732457 15.4299 0.570117V0.570117Z" fill="#A3A9B6"/>
    </g>
    <defs>
        <clipPath id="clip0_1_3816">
            <rect width="16" height="16" fill="white"/>
        </clipPath>
    </defs>
</svg>