<svg width="16" height="16" viewBox="0 0 16 16" fill="none" xmlns="http://www.w3.org/2000/svg">
    <path d="M6 11.9193V4.47131C6.00003 4.33948 6.03914 4.21061 6.1124 4.10101C6.18565 3.9914 6.28976 3.90597 6.41156 3.85553C6.53336 3.80508 6.66738 3.79188 6.79669 3.81759C6.92599 3.8433 7.04476 3.90677 7.138 3.99998L10.862 7.72398C10.987 7.849 11.0572 8.01854 11.0572 8.19531C11.0572 8.37209 10.987 8.54163 10.862 8.66665L7.138 12.3906C7.04476 12.4839 6.92599 12.5473 6.79669 12.573C6.66738 12.5987 6.53336 12.5855 6.41156 12.5351C6.28976 12.4846 6.18565 12.3992 6.1124 12.2896C6.03914 12.18 6.00003 12.0511 6 11.9193Z" fill="#2086BF"/>
</svg>