<svg width="16" height="16" viewBox="0 0 16 16" fill="none" xmlns="http://www.w3.org/2000/svg">
    <path d="M8.86003 12.3934L5.14003 8.6667C5.01586 8.54179 4.94617 8.37282 4.94617 8.1967C4.94617 8.02057 5.01586 7.8516 5.14003 7.7267L8.86003 4.00003C8.95328 3.90601 9.07241 3.84189 9.20224 3.81584C9.33207 3.7898 9.46672 3.803 9.58902 3.85378C9.71131 3.90456 9.81572 3.99061 9.88892 4.10095C9.96212 4.2113 10.0008 4.34095 10 4.47336V11.92C10.0008 12.0524 9.96212 12.1821 9.88892 12.2924C9.81572 12.4028 9.71131 12.4888 9.58902 12.5396C9.46672 12.5904 9.33207 12.6036 9.20224 12.5775C9.07241 12.5515 8.95328 12.4874 8.86003 12.3934Z" fill="#2086BF"/>
</svg>