<svg width="24" height="24" viewBox="0 0 24 24" fill="none" xmlns="http://www.w3.org/2000/svg">
    <path d="M20.7801 19.7203L16.3033 15.2435C17.5233 13.7515 18.1231 11.8476 17.9787 9.92568C17.8343 8.00378 16.9567 6.21091 15.5275 4.9179C14.0983 3.62489 12.2268 2.93068 10.3001 2.97885C8.37336 3.02702 6.53886 3.8139 5.17605 5.17672C3.81323 6.53954 3.02635 8.37403 2.97818 10.3007C2.93001 12.2275 3.62422 14.099 4.91723 15.5282C6.21023 16.9574 8.00311 17.835 9.92501 17.9794C11.8469 18.1238 13.7508 17.524 15.2428 16.304L19.7196 20.7808C19.861 20.9174 20.0505 20.993 20.2471 20.9913C20.4438 20.9896 20.6319 20.9107 20.771 20.7716C20.91 20.6326 20.9889 20.4445 20.9906 20.2478C20.9923 20.0512 20.9167 19.8617 20.7801 19.7203ZM10.4998 16.5005C9.31315 16.5005 8.15311 16.1486 7.16642 15.4893C6.17972 14.83 5.41069 13.893 4.95656 12.7966C4.50243 11.7003 4.38361 10.4939 4.61512 9.32997C4.84664 8.16608 5.41808 7.09698 6.2572 6.25787C7.09631 5.41875 8.16541 4.84731 9.3293 4.6158C10.4932 4.38428 11.6996 4.5031 12.7959 4.95723C13.8923 5.41136 14.8294 6.18039 15.4887 7.16709C16.1479 8.15378 16.4998 9.31382 16.4998 10.5005C16.4981 12.0913 15.8653 13.6163 14.7405 14.7412C13.6157 15.866 12.0906 16.4987 10.4998 16.5005Z" fill="#4A4C56"/>
</svg>