<svg width="16" height="16" viewBox="0 0 16 16" fill="none" xmlns="http://www.w3.org/2000/svg">
    <path d="M4.6875 4.32027C4.95823 4.47658 5.29177 4.47658 5.5625 4.32027C5.83323 4.16397 6 3.87511 6 3.5625C6 3.24989 5.83323 2.96103 5.5625 2.80473C5.29177 2.64842 4.95823 2.64842 4.6875 2.80473C4.41677 2.96103 4.25 3.24989 4.25 3.5625C4.25 3.87511 4.41677 4.16397 4.6875 4.32027ZM4.6875 8.75777C4.95823 8.91408 5.29177 8.91408 5.5625 8.75777C5.83323 8.60147 6 8.31261 6 8C6 7.68739 5.83323 7.39853 5.5625 7.24223C5.29177 7.08592 4.95823 7.08592 4.6875 7.24223C4.41677 7.39853 4.25 7.68739 4.25 8C4.25 8.31261 4.41677 8.60147 4.6875 8.75777ZM10 3.5625C10 3.87511 10.1668 4.16397 10.4375 4.32027C10.7082 4.47658 11.0418 4.47658 11.3125 4.32027C11.5832 4.16397 11.75 3.87511 11.75 3.5625C11.75 3.24989 11.5832 2.96103 11.3125 2.80473C11.0418 2.64842 10.7082 2.64842 10.4375 2.80473C10.1668 2.96103 10 3.24989 10 3.5625ZM10 8C10 8.31261 10.1668 8.60147 10.4375 8.75777C10.7082 8.91408 11.0418 8.91408 11.3125 8.75777C11.5832 8.60147 11.75 8.31261 11.75 8C11.75 7.68739 11.5832 7.39853 11.3125 7.24223C11.0418 7.08592 10.7082 7.08592 10.4375 7.24223C10.1668 7.39853 10 7.68739 10 8ZM4.6875 13.1953C4.95823 13.3516 5.29177 13.3516 5.5625 13.1953C5.83323 13.039 6 12.7501 6 12.4375C6 12.1249 5.83323 11.836 5.5625 11.6797C5.29177 11.5234 4.95823 11.5234 4.6875 11.6797C4.41677 11.836 4.25 12.1249 4.25 12.4375C4.25 12.7501 4.41677 13.039 4.6875 13.1953ZM10 12.4375C10 12.7501 10.1668 13.039 10.4375 13.1953C10.7082 13.3516 11.0418 13.3516 11.3125 13.1953C11.5832 13.039 11.75 12.7501 11.75 12.4375C11.75 12.1249 11.5832 11.836 11.3125 11.6797C11.0418 11.5234 10.7082 11.5234 10.4375 11.6797C10.1668 11.836 10 12.1249 10 12.4375Z" fill="black" fill-opacity="1"/>
</svg>