<svg width="24" height="24" viewBox="0 0 24 24" fill="none" xmlns="http://www.w3.org/2000/svg">
    <rect width="24" height="24" rx="12" fill="#D3F4EF"/>
    <g clip-path="url(#clip0_1_3165)">
        <path d="M16.2995 8.84628L10.5416 14.6038C10.5029 14.6426 10.4569 14.6735 10.4062 14.6945C10.3556 14.7156 10.3012 14.7264 10.2464 14.7264C10.1915 14.7264 10.1372 14.7156 10.0866 14.6945C10.0359 14.6735 9.98989 14.6426 9.95118 14.6038L7.72451 12.375C7.6858 12.3362 7.63979 12.3053 7.58913 12.2843C7.53848 12.2632 7.48416 12.2524 7.4293 12.2524C7.37445 12.2524 7.32013 12.2632 7.26947 12.2843C7.21881 12.3053 7.17281 12.3362 7.1341 12.375C7.09523 12.4137 7.06439 12.4598 7.04335 12.5104C7.02231 12.5611 7.01147 12.6154 7.01147 12.6702C7.01147 12.7251 7.02231 12.7794 7.04335 12.8301C7.06439 12.8807 7.09523 12.9267 7.1341 12.9655L9.3616 15.1925C9.59657 15.4271 9.91501 15.5588 10.247 15.5588C10.579 15.5588 10.8975 15.4271 11.1324 15.1925L16.8899 9.43628C16.9287 9.39758 16.9595 9.3516 16.9805 9.30098C17.0015 9.25036 17.0123 9.19609 17.0123 9.14128C17.0123 9.08648 17.0015 9.03221 16.9805 8.98159C16.9595 8.93097 16.9287 8.88499 16.8899 8.84628C16.8512 8.80742 16.8052 8.77658 16.7546 8.75554C16.7039 8.7345 16.6496 8.72366 16.5947 8.72366C16.5399 8.72366 16.4855 8.7345 16.4349 8.75554C16.3842 8.77658 16.3382 8.80742 16.2995 8.84628Z" fill="#116557"/>
    </g>
    <defs>
        <clipPath id="clip0_1_3165">
            <rect width="10" height="10" fill="white" transform="translate(7 7)"/>
        </clipPath>
    </defs>
</svg>