<svg width="16" height="16" viewBox="0 0 16 16" fill="none" xmlns="http://www.w3.org/2000/svg">
    <path d="M7.99995 10.6656C9.47215 10.6656 10.6656 9.4721 10.6656 7.99989C10.6656 6.52769 9.47215 5.33423 7.99995 5.33423C6.52774 5.33423 5.33429 6.52769 5.33429 7.99989C5.33429 9.4721 6.52774 10.6656 7.99995 10.6656Z" fill="#A3A9B6"/>
    <path d="M15.5112 6.28001C14.4776 4.59663 12.1265 1.77234 8.00001 1.77234C3.87354 1.77234 1.52242 4.59663 0.488799 6.28001C-0.162897 7.33409 -0.162897 8.66597 0.488799 9.72008C1.52242 11.4035 3.87354 14.2277 8.00001 14.2277C12.1265 14.2277 14.4776 11.4035 15.5112 9.72008C16.1629 8.66597 16.1629 7.33409 15.5112 6.28001ZM8.00001 11.9985C5.79171 11.9985 4.0015 10.2083 4.0015 8.00003C4.0015 5.79172 5.79171 4.00151 8.00001 4.00151C10.2083 4.00151 11.9985 5.79172 11.9985 8.00003C11.9963 10.2074 10.2074 11.9963 8.00001 11.9985Z" fill="#A3A9B6"/>
</svg>
