<svg width="24" height="24" viewBox="0 0 24 24" fill="none" xmlns="http://www.w3.org/2000/svg">
<g clip-path="url(#clip0_1_1548)">
<path d="M3 17.2501C3.00119 18.2443 3.39666 19.1974 4.09966 19.9004C4.80267 20.6034 5.7558 20.9989 6.75 21.0001H17.25C18.2442 20.9989 19.1973 20.6034 19.9003 19.9004C20.6033 19.1974 20.9988 18.2443 21 17.2501V10.5001H3V17.2501ZM15.75 13.8751C15.9725 13.8751 16.19 13.941 16.375 14.0647C16.56 14.1883 16.7042 14.364 16.7894 14.5695C16.8745 14.7751 16.8968 15.0013 16.8534 15.2195C16.81 15.4378 16.7028 15.6382 16.5455 15.7956C16.3882 15.9529 16.1877 16.06 15.9695 16.1034C15.7512 16.1469 15.525 16.1246 15.3195 16.0394C15.1139 15.9543 14.9382 15.8101 14.8146 15.6251C14.691 15.4401 14.625 15.2226 14.625 15.0001C14.625 14.7017 14.7435 14.4155 14.9545 14.2046C15.1655 13.9936 15.4516 13.8751 15.75 13.8751ZM12 13.8751C12.2225 13.8751 12.44 13.941 12.625 14.0647C12.81 14.1883 12.9542 14.364 13.0394 14.5695C13.1245 14.7751 13.1468 15.0013 13.1034 15.2195C13.06 15.4378 12.9528 15.6382 12.7955 15.7956C12.6382 15.9529 12.4377 16.06 12.2195 16.1034C12.0012 16.1469 11.775 16.1246 11.5695 16.0394C11.3639 15.9543 11.1882 15.8101 11.0646 15.6251C10.941 15.4401 10.875 15.2226 10.875 15.0001C10.875 14.7017 10.9935 14.4155 11.2045 14.2046C11.4155 13.9936 11.7016 13.8751 12 13.8751ZM8.25 13.8751C8.4725 13.8751 8.69001 13.941 8.87502 14.0647C9.06002 14.1883 9.20422 14.364 9.28936 14.5695C9.37451 14.7751 9.39679 15.0013 9.35338 15.2195C9.30998 15.4378 9.20283 15.6382 9.0455 15.7956C8.88816 15.9529 8.68771 16.06 8.46948 16.1034C8.25125 16.1469 8.02505 16.1246 7.81948 16.0394C7.61391 15.9543 7.43821 15.8101 7.3146 15.6251C7.19098 15.4401 7.125 15.2226 7.125 15.0001C7.125 14.7017 7.24353 14.4155 7.4545 14.2046C7.66548 13.9936 7.95163 13.8751 8.25 13.8751V13.8751Z" fill="#2086BF"/>
<path d="M17.25 4.5H16.5V3.75C16.5 3.55109 16.421 3.36032 16.2803 3.21967C16.1397 3.07902 15.9489 3 15.75 3C15.5511 3 15.3603 3.07902 15.2197 3.21967C15.079 3.36032 15 3.55109 15 3.75V4.5H9V3.75C9 3.55109 8.92098 3.36032 8.78033 3.21967C8.63968 3.07902 8.44891 3 8.25 3C8.05109 3 7.86032 3.07902 7.71967 3.21967C7.57902 3.36032 7.5 3.55109 7.5 3.75V4.5H6.75C5.7558 4.50119 4.80267 4.89666 4.09966 5.59966C3.39666 6.30267 3.00119 7.2558 3 8.25L3 9H21V8.25C20.9988 7.2558 20.6033 6.30267 19.9003 5.59966C19.1973 4.89666 18.2442 4.50119 17.25 4.5V4.5Z" fill="#2086BF"/>
</g>
<defs>
<clipPath id="clip0_1_1548">
<rect width="18" height="18" fill="white" transform="translate(3 3)"/>
</clipPath>
</defs>
</svg>
