<svg width="24" height="24" viewBox="0 0 24 24" fill="none" xmlns="http://www.w3.org/2000/svg">
<g clip-path="url(#clip0_1_1534)">
<path d="M12.0002 8.95939C12.631 8.95939 13.1424 8.44798 13.1424 7.81713C13.1424 7.18629 12.631 6.67487 12.0002 6.67487C11.3693 6.67487 10.8579 7.18629 10.8579 7.81713C10.8579 8.44798 11.3693 8.95939 12.0002 8.95939Z" fill="#858D9D"/>
<path d="M17.9998 3.00067H5.9998C4.33202 3.01385 2.98983 4.37486 2.99981 6.04267V15.1701C2.98983 16.8381 4.33192 18.1993 5.9998 18.2129H8.19204L11.003 20.6129C11.5598 21.1217 12.4106 21.1292 12.9763 20.6302L15.86 18.2121H17.9998C19.6677 18.1985 21.0098 16.8373 20.9998 15.1694V6.04267C21.0098 4.37486 19.6676 3.01385 17.9998 3.00067ZM11.9998 5.28217C15.4611 5.37368 15.4603 10.5149 11.9998 10.6072C8.53857 10.5149 8.53931 5.3759 11.9998 5.28217ZM15.1865 15.9067C14.7852 16.0091 14.3768 15.7667 14.2744 15.3654C14.274 15.3635 14.2735 15.3617 14.2731 15.3599C13.8892 14.1042 12.56 13.3975 11.3044 13.7814C10.5485 14.0125 9.95688 14.6041 9.7258 15.3599C9.621 15.7609 9.21101 16.001 8.81005 15.8962C8.40909 15.7914 8.16901 15.3814 8.27381 14.9804C8.85375 12.9224 10.9922 11.7242 13.0502 12.3041C14.3473 12.6696 15.361 13.6833 15.7266 14.9804C15.831 15.385 15.5901 15.7982 15.1865 15.9067Z" fill="#2086BF"/>
</g>
<defs>
<clipPath id="clip0_1_1534">
<rect width="18" height="18" fill="white" transform="translate(3 3)"/>
</clipPath>
</defs>
</svg>
