<svg width="16" height="16" viewBox="0 0 16 16" fill="none" xmlns="http://www.w3.org/2000/svg">
    <path d="M11.7268 5.3333L4.2734 5.3333C4.1416 5.3339 4.0128 5.3735 3.9035 5.4472C3.7942 5.5209 3.7092 5.6254 3.6592 5.7474C3.6093 5.8694 3.5966 6.00352 3.6229 6.13273C3.6492 6.26194 3.7131 6.38046 3.8068 6.47331L7.52675 10.1933C7.58873 10.2558 7.66246 10.3054 7.7437 10.3392C7.82494 10.3731 7.91208 10.3905 8.00009 10.3905C8.08809 10.3905 8.17523 10.3731 8.25647 10.3392C8.33771 10.3054 8.41144 10.2558 8.47342 10.1933L12.1934 6.47331C12.287 6.38046 12.351 6.26194 12.3773 6.13273C12.4035 6.00352 12.3909 5.8694 12.3409 5.7474C12.291 5.6254 12.206 5.5209 12.0967 5.4472C11.9873 5.3735 11.8586 5.3339 11.7268 5.3333Z" fill="#EB3D4D"/>
</svg>