<svg width="36" height="36" viewBox="0 0 36 36" fill="none" xmlns="http://www.w3.org/2000/svg">
    <rect width="36" height="36" rx="8" fill="#E9FAF7"/>
    <g clip-path="url(#clip0_1_1622)">
        <path d="M23.2131 26.2506H23.1884C22.8051 26.2446 22.4406 26.0819 22.1804 25.8006L20.7419 24.3899C20.4539 24.0921 20.4606 23.6174 20.7584 23.3294C20.7591 23.3286 20.7599 23.3279 20.7606 23.3271C21.0584 23.0414 21.5309 23.0496 21.8181 23.3451L23.2139 24.7124L25.7196 22.2066C26.0121 21.9141 26.4876 21.9141 26.7801 22.2066C27.0726 22.4991 27.0726 22.9746 26.7801 23.2671L24.2144 25.8329C23.9504 26.1006 23.5896 26.2514 23.2131 26.2506Z" fill="#22CAAD"/>
        <path d="M19.5262 24.0113C19.5232 21.5385 21.525 19.5315 23.997 19.5278C24.9592 19.5263 25.8967 19.8353 26.6692 20.409C27.999 15.6203 25.1947 10.6605 20.4067 9.33078C15.6187 8.00103 10.6597 10.8045 9.32999 15.5933C8.00024 20.382 10.8045 25.3425 15.5925 26.6723C17.1675 27.1095 18.8317 27.1095 20.4067 26.6723C19.8352 25.9028 19.5262 24.9698 19.5262 24.0113ZM18.75 18.0165C18.75 18.216 18.6705 18.4065 18.5295 18.5475L16.2757 20.802C15.9772 21.09 15.5017 21.0818 15.2137 20.7833C14.9325 20.4923 14.9325 20.0303 15.2137 19.7393L17.2477 17.7053V14.2598C17.2477 13.845 17.5837 13.5083 17.9992 13.5083C18.414 13.5083 18.75 13.845 18.75 14.2598V18.0165Z" fill="#22CAAD"/>
    </g>
    <defs>
        <clipPath id="clip0_1_1622">
        <rect width="18" height="18" fill="white" transform="translate(9 9)"/>
        </clipPath>
    </defs>
</svg>