<svg width="36" height="36" viewBox="0 0 36 36" fill="none" xmlns="http://www.w3.org/2000/svg">
    <rect width="36" height="36" rx="8" fill="#EB3D4D" fill-opacity="0.1"/>
    <g clip-path="url(#clip0_1_1634)">
        <path d="M26.0305 26.0308C25.738 26.3233 25.2625 26.3233 24.97 26.0308L23.9095 24.9703L22.8482 26.0308C22.5602 26.3285 22.0855 26.3368 21.7877 26.0495C21.49 25.7615 21.4817 25.2868 21.769 24.989C21.775 24.983 21.781 24.9763 21.7877 24.9703L22.8482 23.9098L21.7877 22.8485C21.49 22.5605 21.4817 22.0858 21.769 21.788C22.057 21.4903 22.5317 21.482 22.8295 21.7693C22.8355 21.7753 22.8422 21.7813 22.8482 21.788L23.9095 22.8485L24.97 21.788C25.258 21.4903 25.7327 21.482 26.0305 21.7693C26.3282 22.0573 26.3365 22.532 26.0492 22.8298C26.0432 22.8358 26.0372 22.8425 26.0305 22.8485L24.97 23.9098L26.0305 24.9703C26.3245 25.262 26.3282 25.7345 26.0365 26.0285C26.035 26.03 26.0342 26.0315 26.0305 26.0308Z" fill="#EB3D4D"/>
        <path d="M19.5262 24.0113C19.5232 21.5385 21.525 19.5315 23.997 19.5278C24.9592 19.5263 25.8967 19.8353 26.6692 20.409C27.999 15.6203 25.1947 10.6605 20.4067 9.33078C15.6187 8.00103 10.6597 10.8045 9.32999 15.5933C8.00024 20.382 10.8045 25.3425 15.5925 26.6723C17.1675 27.1095 18.8317 27.1095 20.4067 26.6723C19.8352 25.9028 19.5262 24.9698 19.5262 24.0113ZM18.75 18.0165C18.75 18.216 18.6705 18.4065 18.5295 18.5475L16.2757 20.802C15.9772 21.09 15.5017 21.0818 15.2137 20.7833C14.9325 20.4923 14.9325 20.0303 15.2137 19.7393L17.2477 17.7053V14.2598C17.2477 13.845 17.5837 13.5083 17.9992 13.5083C18.414 13.5083 18.75 13.845 18.75 14.2598V18.0165Z" fill="#EB3D4D"/>
    </g>
    <defs>
        <clipPath id="clip0_1_1634">
            <rect width="18" height="18" fill="white" transform="translate(9 9)"/>
        </clipPath>
    </defs>
</svg>